<?xml version="1.0" standalone="no"?>
<!DOCTYPE svg PUBLIC "-//W3C//DTD SVG 20010904//EN"
 "http://www.w3.org/TR/2001/REC-SVG-20010904/DTD/svg10.dtd">
<svg version="1.0" xmlns="http://www.w3.org/2000/svg"
 width="260.000000pt" height="260.000000pt" viewBox="0 0 260.000000 260.000000"
 preserveAspectRatio="xMidYMid meet">
<metadata>
Created by potrace 1.11, written by Peter Selinger 2001-2013
</metadata>
<g transform="translate(0.000000,260.000000) scale(0.100000,-0.100000)"
fill="#000000" stroke="none">
<path d="M0 1300 l0 -1300 1300 0 1300 0 0 1300 0 1300 -1300 0 -1300 0 0
-1300z m1978 -27 l2 -653 -340 0 c-187 0 -340 3 -340 6 0 4 16 25 36 47 79 87
126 241 107 355 l-9 58 267 414 c147 228 266 416 264 418 -2 3 -111 -61 -242
-140 -131 -80 -321 -195 -421 -256 l-184 -111 -51 10 c-102 22 -237 -9 -338
-77 -28 -19 -53 -34 -55 -34 -2 0 -4 140 -4 310 l0 310 653 -2 652 -3 3 -652z
m-834 34 c77 -35 140 -98 179 -176 29 -60 32 -74 32 -161 0 -88 -3 -101 -33
-162 -100 -203 -352 -269 -539 -142 -251 171 -195 559 95 655 79 26 191 20
266 -14z m-470 -665 c31 -29 85 -67 121 -84 l66 -30 -183 -111 c-101 -61 -291
-177 -423 -258 -132 -80 -242 -145 -244 -143 -2 2 117 190 265 418 l267 415
38 -78 c26 -53 55 -93 93 -129z"/>
</g>
</svg>
