<?xml version="1.0" encoding="UTF-8"?>
<svg width="11px" height="19px" viewBox="0 0 11 19" version="1.1" xmlns="http://www.w3.org/2000/svg" xmlns:xlink="http://www.w3.org/1999/xlink">
    <!-- Generator: Sketch 40.3 (33839) - http://www.bohemiancoding.com/sketch -->
    <title>Shape</title>
    <desc>Created with Sketch.</desc>
    <defs></defs>
    <g id="Page-1" stroke="none" stroke-width="1" fill="none" fill-rule="evenodd">
        <g id="25px" transform="translate(-998.000000, -2180.000000)" fill="#000000">
            <path d="M1008.998,2189.499 C1008.997,2189.516 1008.998,2189.532 1008.995,2189.549 C1008.989,2189.727 1008.911,2189.899 1008.759,2189.994 L998.731,2198.928 C998.497,2199.075 998.198,2198.989 998.062,2198.733 C997.926,2198.478 998.006,2198.152 998.241,2198.004 L1007.789,2189.499 L998.241,2180.994 C998.007,2180.848 997.927,2180.521 998.062,2180.265 C998.198,2180.01 998.497,2179.923 998.731,2180.071 L1008.759,2189.004 C1008.911,2189.1 1008.989,2189.272 1008.995,2189.449 C1008.998,2189.467 1008.997,2189.482 1008.998,2189.499 L1008.998,2189.499 Z" id="Shape"></path>
        </g>
    </g>
</svg>